<svg xmlns="http://www.w3.org/2000/svg" viewBox="0 0 664.97 64.13"><defs><style>.cls-1{fill:#fff;}</style></defs><g id="Layer_2" data-name="Layer 2"><g id="Layer_1-2" data-name="Layer 1"><polygon class="cls-1" points="525.76 0.02 525.76 11 573.44 11 525.76 52.9 525.76 53.13 525.76 62.38 525.76 64.11 527.28 64.11 529.68 64.11 589.85 64.11 589.85 53.13 542.17 53.13 589.85 11.22 589.85 11 589.85 0.02 585.94 0.02 525.76 0.02"/><polygon class="cls-1" points="86.09 64.11 86.09 37.56 128.24 37.56 128.24 64.11 139.24 64.11 139.24 0.02 128.24 0.02 128.24 26.56 86.09 26.56 86.09 0.02 75.09 0.02 75.09 64.11 86.09 64.11"/><path class="cls-1" d="M260.64,0H248.73L225.36,56.17v7.94H234l6.17-14.85h34.52l6.17,14.85h8.62V56.17L266.09,0ZM244.73,38.26,257.41,7.78l12.68,30.48Z"/><polygon class="cls-1" points="433 0.02 428.67 0.02 421.34 0.02 407.64 39.13 393.94 0.02 386.61 0.02 382.28 0.02 375.61 0.02 375.61 64.11 386.61 64.11 386.61 12.37 399.8 50.02 415.48 50.02 428.67 12.37 428.67 64.11 439.67 64.11 439.67 0.02 433 0.02"/><path class="cls-1" d="M486,0H474L450.67,56.17v7.94h8.61l6.18-14.85H500l6.18,14.85h8.61V56.17L491.4,0ZM470,38.26,482.72,7.78,495.4,38.26Z"/><path class="cls-1" d="M364.61,32.06A32,32,0,0,0,333.25,0l-.7,0H300.46V64.11h32.78a32.05,32.05,0,0,0,31.37-32ZM347.44,47a21,21,0,0,1-14.89,6.16H311.46V11h21.09a21.06,21.06,0,0,1,14.89,36Z"/><polygon class="cls-1" points="155.74 64.11 155.74 64.13 214.37 64.13 214.37 64.11 214.37 53.13 161.24 53.13 161.24 37.56 214.37 37.56 214.37 26.56 161.24 26.56 161.24 11 214.37 11 214.37 0.02 214.37 0 155.74 0 155.74 0.02 150.24 0.02 150.24 64.11 155.74 64.11"/><polygon class="cls-1" points="606.35 0 606.35 0.02 600.85 0.02 600.85 64.11 606.35 64.11 606.35 64.13 664.97 64.13 664.97 64.11 664.97 53.13 611.85 53.13 611.85 37.56 664.97 37.56 664.97 26.56 611.85 26.56 611.85 11 664.97 11 664.97 0.02 664.97 0 606.35 0"/><polygon class="cls-1" points="52.74 19.4 52.74 64.11 58.41 64.11 64.09 64.11 64.09 0.02 0 0.02 0 5.69 0 11.37 44.71 11.37 0 56.08 0 64.11 8.03 64.11 52.74 19.4"/></g></g></svg>