<svg xmlns="http://www.w3.org/2000/svg" viewBox="0 0 988.81 347.72"><defs><style>.cls-1{isolation:isolate;}.cls-2{mix-blend-mode:multiply;}.cls-3{fill:red;}</style></defs><g class="cls-1"><g id="Layer_2" data-name="Layer 2"><g id="Layer_1-2" data-name="Layer 1"><g class="cls-2"><path class="cls-3" d="M0,341.85H138.89v-9.29q-27.48-2.19-35.74-10t-8.27-35V184.38H247V281.7q0,32.37-7.21,40.15T203,332.56v9.29H341.85v-9.29q-27.63-2.43-35.82-10.1t-8.19-34.89V64.8q0-26.89,8.19-35t35.82-10v-9.3H203v9.3q27.87,1.95,35.95,10t8.06,35v97.57H94.88V64.8q0-26.89,8.27-35t35.74-10v-9.3H0v9.3q27.63,1.95,35.82,10t8.2,35V281.7q0,32.37-7.34,40T0,332.56Z"/><path class="cls-3" d="M429.05,130.33q28.13,0,40.1,21.52,6.62,12,9.3,36.44H375.25q3.44-20.06,11.25-33.26Q401.17,130.34,429.05,130.33Zm14.18-17.85q-46.71,0-75.8,35.7T338.33,233q0,45.24,25.07,80t71,34.72q39.85,0,67.37-26.45t37.53-57.56l-8.55-2.93q-14.92,24.64-32.53,38.06T455,312.26q-31.79,0-55-25.86t-25.67-82.46H529.55q0-43.77-25.92-67.62T443.23,112.48Z"/><path class="cls-3" d="M870.7,320.09q-36.19,0-54.41-30.81T798.08,219.1q0-39.85,17.11-67.13t47.93-27.26q16.14,0,33.13,13.08t17,44.87V287.57q0,10-11.74,21.27T870.7,320.09Zm-9.05-209.32q-44.74,0-75.68,38T755,239.88q0,42.31,25.8,74.46T848.2,346.5q23.47,0,41.33-11,10-6.35,23.72-21.27V344.3l1.71,2.2,38.39-14.43,35.46-12.23v-8.07a39.59,39.59,0,0,1-5.38.62c-1.8.08-3.59.12-5.38.12q-16.87,0-20.79-6.36t-3.91-22.25l.49-199.78q0-14.43.25-29.22t.48-28.74L955.06.49,953.6,0q-9.06,3.42-13,4.65-8.32,2.92-19.32,6.11t-22,6.11l-20,5.14v8.07q7.57-.73,9.78-1a47.87,47.87,0,0,1,5.14-.25q12.47,0,15.77,5.63T913.25,55v77.76a78.17,78.17,0,0,0-18.83-14.18A69.44,69.44,0,0,0,861.65,110.77ZM554.14,293.19q0,22.74,15.41,37.54A50.84,50.84,0,0,0,606,345.52q20.06,0,42.31-13.21,13.2-7.81,31.79-24,.72,14.92,8.19,25.68t24.08,10.76q14.19,0,27.88-9.3a79.5,79.5,0,0,0,16.87-15.65V307.13q-9,6.6-12.71,8.31a22.07,22.07,0,0,1-9.3,1.71q-10,0-13.2-9.53-2-5.39-2-19.57V190q0-32.28-9-49.15Q694,110,646.57,110q-40.83,0-62,18.7t-21.16,35.83a24.75,24.75,0,0,0,5.87,16q5.88,7.21,16.88,7.22a22.75,22.75,0,0,0,12.22-3.18q9-5.37,9.05-19.07a71.09,71.09,0,0,0-1.22-8.93,66.07,66.07,0,0,1-1.23-9.9q0-11.49,11.25-18.1A47.5,47.5,0,0,1,640,122.26q26.16,0,34.48,16.39,4.89,9.78,4.89,34.72v20.79Q612.1,219.34,589.6,234,554.14,257.74,554.14,293.19Zm125.2-9.29q0,13.94-14.79,23a58.4,58.4,0,0,1-30.94,9.05,35.59,35.59,0,0,1-21.27-6.85q-14.67-10.5-14.67-32.76,0-27.63,35.21-49.4,18.35-11.23,46.46-20.54Z"/></g></g></g></g></svg>