<svg xmlns="http://www.w3.org/2000/svg" viewBox="0 0 70.85 70.86"><defs><style>.cls-1 {
  fill: #00f;
}

</style></defs><g id="Layer_2" data-name="Layer 2"><g id="Layer_1-2" data-name="Layer 1"><circle class="cls-1" cx="20.13" cy="4.83" r="1.93"></circle><circle class="cls-1" cx="35.43" cy="4.83" r="1.93"></circle><path class="cls-1" d="M52.66,4.83A1.94,1.94,0,1,1,50.73,2.9,1.93,1.93,0,0,1,52.66,4.83Z"></path><path class="cls-1" d="M22.06,66a1.93,1.93,0,1,1-1.93-1.94A1.93,1.93,0,0,1,22.06,66Z"></path><path class="cls-1" d="M37.36,66a1.93,1.93,0,1,1-1.93-1.94A1.94,1.94,0,0,1,37.36,66Z"></path><path class="cls-1" d="M52.66,66a1.94,1.94,0,1,1-1.93-1.94A1.94,1.94,0,0,1,52.66,66Z"></path><path class="cls-1" d="M22.06,50.73a1.93,1.93,0,1,1-1.93-1.94A1.93,1.93,0,0,1,22.06,50.73Z"></path><path class="cls-1" d="M39.29,50.73a3.87,3.87,0,1,1-3.86-3.87A3.86,3.86,0,0,1,39.29,50.73Z"></path><path class="cls-1" d="M52.66,50.73a1.94,1.94,0,1,1-1.93-1.94A1.94,1.94,0,0,1,52.66,50.73Z"></path><path class="cls-1" d="M22,35.43a1.89,1.89,0,1,1-1.88-1.89A1.88,1.88,0,0,1,22,35.43Z"></path><path class="cls-1" d="M37.36,20.13a1.93,1.93,0,1,1-1.93-1.93A1.93,1.93,0,0,1,37.36,20.13Z"></path><circle class="cls-1" cx="4.83" cy="4.83" r="4.83"></circle><circle class="cls-1" cx="35.43" cy="35.43" r="4.83"></circle><circle class="cls-1" cx="66.03" cy="4.83" r="4.83"></circle><circle class="cls-1" cx="4.83" cy="20.13" r="4.83"></circle><circle class="cls-1" cx="4.83" cy="35.43" r="4.83"></circle><circle class="cls-1" cx="4.83" cy="50.73" r="4.83"></circle><circle class="cls-1" cx="4.83" cy="66.03" r="4.83"></circle><circle class="cls-1" cx="66.03" cy="20.13" r="4.83"></circle><circle class="cls-1" cx="66.03" cy="35.43" r="4.83"></circle><circle class="cls-1" cx="66.03" cy="50.73" r="4.83"></circle><circle class="cls-1" cx="66.03" cy="66.03" r="4.83"></circle><circle class="cls-1" cx="50.73" cy="20.13" r="4.83"></circle><circle class="cls-1" cx="20.13" cy="20.13" r="4.83"></circle><path class="cls-1" d="M52.61,35.43a1.89,1.89,0,1,1-1.88-1.89A1.88,1.88,0,0,1,52.61,35.43Z"></path></g></g></svg>