<svg xmlns="http://www.w3.org/2000/svg" viewBox="0 0 70.85 70.86"><defs><style>.cls-1{fill:red}</style></defs><g id="Layer_2" data-name="Layer 2"><g id="Layer_1-2" data-name="Layer 1"><circle class="cls-1" cx="4.83" cy="4.83" r="4.83"/><circle class="cls-1" cx="20.13" cy="4.83" r="1.93"/><circle class="cls-1" cx="35.43" cy="4.83" r="1.93"/><path class="cls-1" d="M52.66 4.83a1.94 1.94 0 1 1-1.93-1.93 1.93 1.93 0 0 1 1.93 1.93ZM22.06 66a1.93 1.93 0 1 1-1.93-1.94A1.93 1.93 0 0 1 22.06 66ZM37.36 66a1.93 1.93 0 1 1-1.93-1.94A1.94 1.94 0 0 1 37.36 66ZM37.36 50.73a1.93 1.93 0 1 1-1.93-1.94 1.94 1.94 0 0 1 1.93 1.94ZM52.66 66a1.94 1.94 0 1 1-1.93-1.94A1.94 1.94 0 0 1 52.66 66ZM22.06 50.73a1.93 1.93 0 1 1-1.93-1.94 1.93 1.93 0 0 1 1.93 1.94ZM22.06 20.13a1.93 1.93 0 1 1-1.93-1.93 1.92 1.92 0 0 1 1.93 1.93ZM52.66 20.13a1.94 1.94 0 1 1-1.93-1.93 1.93 1.93 0 0 1 1.93 1.93ZM52.66 50.73a1.94 1.94 0 1 1-1.93-1.94 1.94 1.94 0 0 1 1.93 1.94ZM37.36 20.13a1.93 1.93 0 1 1-1.93-1.93 1.93 1.93 0 0 1 1.93 1.93Z"/><circle class="cls-1" cx="20.13" cy="35.43" r="4.83"/><circle class="cls-1" cx="35.43" cy="35.43" r="4.83"/><circle class="cls-1" cx="66.03" cy="4.83" r="4.83"/><circle class="cls-1" cx="4.83" cy="20.13" r="4.83"/><circle class="cls-1" cx="4.83" cy="35.43" r="4.83"/><circle class="cls-1" cx="4.83" cy="50.73" r="4.83"/><circle class="cls-1" cx="4.83" cy="66.03" r="4.83"/><circle class="cls-1" cx="66.03" cy="20.13" r="4.83"/><circle class="cls-1" cx="66.03" cy="35.43" r="4.83"/><circle class="cls-1" cx="66.03" cy="50.73" r="4.83"/><circle class="cls-1" cx="66.03" cy="66.03" r="4.83"/><circle class="cls-1" cx="50.73" cy="35.43" r="4.83"/></g></g></svg>