<svg xmlns="http://www.w3.org/2000/svg" viewBox="0 0 1049.93 337.21"><defs><style>.cls-1 {
  isolation: isolate;
}

.cls-2 {
  mix-blend-mode: multiply;
}

.cls-3 {
  fill: #00f;
}

</style></defs><g class="cls-1"><g id="Layer_2" data-name="Layer 2"><g id="Layer_1-2" data-name="Layer 1"><g class="cls-2"><path class="cls-3" d="M0,331.34H117.62V322q-27.15-2.93-35-11-12-12.46-12-53.51V57.92L196.72,331.34h6.85L331.83,46.19V271q0,31.77-7.46,40.19T286.59,322v9.3H426.7V322q-27.87-2.43-35.94-10.13t-8.07-35.07V54.25q0-26.62,8.07-34.82T426.7,9.29V0H327.17L215,249.45,100,0H1.22V9.29q30.32,1.47,38.88,9.65t8.56,35.31V257.54q0,39.58-8.8,50.46T0,322Z"></path><path class="cls-3" d="M433,282.68q0,22.74,15.41,37.53A50.8,50.8,0,0,0,484.8,335q20.06,0,42.31-13.2,13.2-7.83,31.79-24,.74,14.91,8.19,25.67t24.08,10.76q14.19,0,27.88-9.29a79.5,79.5,0,0,0,16.87-15.65V296.61q-9,6.61-12.71,8.32a22.06,22.06,0,0,1-9.29,1.71q-10,0-13.21-9.54-2-5.37-2-19.56V179.48q0-32.26-9-49.15Q572.84,99.52,525.4,99.52q-40.84,0-62,18.71t-21.15,35.82a24.78,24.78,0,0,0,5.86,16q5.88,7.22,16.88,7.21a22.75,22.75,0,0,0,12.22-3.18q9-5.37,9-19.07a71,71,0,0,0-1.22-8.92,65.63,65.63,0,0,1-1.22-9.91q0-11.49,11.24-18.09a47.5,47.5,0,0,1,23.72-6.36q26.18,0,34.48,16.38,4.89,9.8,4.89,34.73v20.78q-67.24,25.19-89.74,39.86Q433,247.22,433,282.68Zm125.2-9.3q0,14-14.79,23a58.45,58.45,0,0,1-30.93,9.05,35.6,35.6,0,0,1-21.28-6.85q-14.67-10.51-14.67-32.77,0-27.63,35.21-49.39,18.34-11.25,46.46-20.54Z"></path><path class="cls-3" d="M939.65,119.82q28.11,0,40.1,21.52,6.6,12,9.29,36.43H885.85q3.42-20,11.25-33.25Q911.77,119.82,939.65,119.82ZM953.83,102q-46.71,0-75.8,35.7t-29.1,84.85q0,45.24,25.06,80t71,34.73q39.86,0,67.37-26.46t37.53-57.55l-8.56-2.93q-14.91,24.64-32.52,38.06t-43.28,13.42q-31.8,0-55-25.86t-25.68-82.47h155.28q0-43.77-25.92-67.61T953.83,102Zm-294.55,4.64-.73,59.18h8.56q3.17-26.16,11.24-35.21t34.48-9.05h65.54L644.61,325.71v5.63H834.12L841,263.6l-8.56-1.71q-9.3,35.7-18.83,44.87t-45.48,9.17H698.89L834.61,112.48v-5.87Z"></path></g></g></g></g></svg>